<svg width="380" height="960" viewBox="0 0 380 960" fill="none" xmlns="http://www.w3.org/2000/svg">
<g clip-path="url(#clip0_920_2)">
<mask id="mask0_920_2" style="mask-type:luminance" maskUnits="userSpaceOnUse" x="0" y="0" width="380" height="960">
<path d="M380 960L380 0L1.52588e-05 -1.66103e-05L-2.67041e-05 960L380 960Z" fill="white"/>
</mask>
<g mask="url(#mask0_920_2)">
<mask id="mask1_920_2" style="mask-type:luminance" maskUnits="userSpaceOnUse" x="-583" y="0" width="842" height="960">
<path d="M-582.699 0.757739L258.767 0.757812L258.767 959.049L-582.699 959.049L-582.699 0.757739Z" fill="white"/>
</mask>
<g mask="url(#mask1_920_2)">
<path style="mix-blend-mode:screen" d="M-103.588 959.112C-368.21 959.112 -582.729 744.593 -582.729 479.971C-582.729 215.349 -368.21 0.830013 -103.588 0.830036C161.035 0.830059 375.553 215.349 375.553 479.971C375.553 744.593 161.034 959.112 -103.588 959.112Z" stroke="url(#paint0_linear_920_2)" stroke-opacity="0.3" stroke-width="0.816958" stroke-dasharray="4.54 4.54"/>
<path style="mix-blend-mode:screen" d="M-467.04 473.2C-467.066 474.686 -467.084 476.175 -467.093 477.666L-466.685 477.668C-466.69 478.413 -466.692 479.158 -466.692 479.904C-466.692 480.649 -466.69 481.394 -466.685 482.138L-467.093 482.141C-467.084 483.632 -467.066 485.12 -467.04 486.607L-466.631 486.6C-466.604 488.084 -466.568 489.567 -466.524 491.048L-466.932 491.06C-466.887 492.542 -466.833 494.022 -466.771 495.499L-466.363 495.482C-466.3 496.963 -466.228 498.441 -466.148 499.917L-466.556 499.94C-466.475 501.428 -466.385 502.915 -466.286 504.398L-465.878 504.371C-465.779 505.853 -465.672 507.333 -465.555 508.81L-465.962 508.843C-465.845 510.322 -465.72 511.798 -465.585 513.272L-465.178 513.235C-465.044 514.709 -464.9 516.181 -464.748 517.65L-465.154 517.692C-465.001 519.175 -464.838 520.655 -464.667 522.133L-464.261 522.086C-464.09 523.561 -463.91 525.034 -463.721 526.505L-464.126 526.557C-463.937 528.029 -463.739 529.498 -463.533 530.964L-463.128 530.907C-462.922 532.372 -462.706 533.835 -462.482 535.294L-462.886 535.356C-462.66 536.829 -462.425 538.3 -462.181 539.767L-461.778 539.7C-461.535 541.165 -461.282 542.628 -461.021 544.087L-461.423 544.159C-461.162 545.62 -460.892 547.078 -460.613 548.534L-460.212 548.457C-459.934 549.91 -459.646 551.36 -459.351 552.807L-459.751 552.889C-459.453 554.349 -459.145 555.805 -458.83 557.258L-458.431 557.171C-458.115 558.622 -457.791 560.071 -457.458 561.516L-457.856 561.607C-457.523 563.054 -457.181 564.497 -456.831 565.937L-456.434 565.841C-456.084 567.279 -455.725 568.714 -455.358 570.145L-455.754 570.247C-455.384 571.689 -455.005 573.127 -454.618 574.562L-454.224 574.456C-453.837 575.889 -453.442 577.32 -453.038 578.747L-453.431 578.858C-453.027 580.286 -452.614 581.711 -452.192 583.132L-451.801 583.016C-451.38 584.436 -450.95 585.852 -450.513 587.264L-450.903 587.385C-450.462 588.806 -450.013 590.224 -449.556 591.637L-449.167 591.511C-448.71 592.924 -448.244 594.333 -447.77 595.738L-448.157 595.869C-447.683 597.275 -447.2 598.678 -446.709 600.077L-446.323 599.942C-445.833 601.339 -445.334 602.732 -444.826 604.122L-445.21 604.262C-444.7 605.659 -444.181 607.052 -443.654 608.441L-443.272 608.296C-442.746 609.684 -442.211 611.068 -441.668 612.448L-442.049 612.598C-441.505 613.979 -440.953 615.356 -440.393 616.729L-440.015 616.575C-439.456 617.947 -438.888 619.314 -438.313 620.677L-438.689 620.836C-438.11 622.206 -437.524 623.572 -436.929 624.933L-436.555 624.769C-435.961 626.129 -435.358 627.485 -434.748 628.836L-435.12 629.004C-434.509 630.357 -433.89 631.706 -433.263 633.05L-432.892 632.877C-432.266 634.219 -431.632 635.557 -430.989 636.891L-431.357 637.068C-430.712 638.407 -430.059 639.742 -429.398 641.072L-429.032 640.89C-428.371 642.219 -427.703 643.543 -427.027 644.863L-427.39 645.049C-426.713 646.37 -426.028 647.686 -425.335 648.998L-424.974 648.807C-424.282 650.117 -423.582 651.423 -422.875 652.723L-423.234 652.919C-422.524 654.224 -421.805 655.525 -421.08 656.821L-420.723 656.621C-419.998 657.916 -419.266 659.205 -418.525 660.49L-418.879 660.694C-418.138 661.98 -417.389 663.261 -416.633 664.537L-416.281 664.329C-415.526 665.604 -414.762 666.873 -413.991 668.138L-414.34 668.351C-413.567 669.62 -412.786 670.883 -411.997 672.142L-411.651 671.925C-410.864 673.182 -410.069 674.434 -409.266 675.68L-409.61 675.902C-408.806 677.15 -407.995 678.392 -407.177 679.63L-406.836 679.405C-406.019 680.641 -405.194 681.872 -404.362 683.098L-404.7 683.328C-403.865 684.557 -403.023 685.78 -402.174 686.998L-401.839 686.765C-400.991 687.982 -400.136 689.193 -399.273 690.399L-399.605 690.636C-398.742 691.844 -397.871 693.045 -396.993 694.241L-396.664 694C-395.787 695.195 -394.902 696.384 -394.011 697.568L-394.337 697.814C-393.444 699 -392.543 700.181 -391.636 701.356L-391.312 701.106C-390.406 702.28 -389.492 703.448 -388.572 704.61L-388.892 704.864C-387.97 706.027 -387.042 707.185 -386.106 708.337L-385.789 708.08C-384.855 709.231 -383.913 710.376 -382.965 711.515L-383.278 711.776C-382.328 712.917 -381.371 714.052 -380.408 715.182L-380.097 714.916C-379.134 716.044 -378.165 717.166 -377.189 718.282L-377.496 718.551C-376.519 719.668 -375.535 720.78 -374.544 721.884L-374.24 721.612C-373.25 722.716 -372.254 723.814 -371.251 724.905L-371.551 725.182C-370.547 726.275 -369.536 727.362 -368.518 728.443L-368.221 728.163C-367.204 729.242 -366.181 730.315 -365.152 731.382L-365.446 731.666C-364.415 732.734 -363.378 733.796 -362.334 734.852L-362.044 734.565C-361.002 735.619 -359.953 736.667 -358.898 737.708L-359.185 737.999C-358.128 739.042 -357.065 740.078 -355.996 741.108L-355.713 740.814C-354.645 741.842 -353.571 742.864 -352.491 743.88L-352.77 744.178C-351.689 745.194 -350.601 746.205 -349.507 747.208L-349.231 746.907C-348.138 747.909 -347.04 748.905 -345.935 749.894L-346.207 750.198C-345.102 751.188 -343.99 752.171 -342.872 753.147L-342.603 752.84C-341.486 753.815 -340.364 754.783 -339.235 755.745L-339.5 756.056C-338.37 757.019 -337.234 757.975 -336.092 758.924L-335.831 758.61C-334.691 759.558 -333.545 760.498 -332.393 761.432L-332.651 761.749C-331.498 762.684 -330.339 763.611 -329.175 764.532L-328.922 764.212C-327.759 765.131 -326.59 766.044 -325.416 766.949L-325.665 767.273C-324.489 768.179 -323.308 769.079 -322.121 769.971L-321.875 769.645C-320.691 770.535 -319.501 771.419 -318.305 772.295L-318.546 772.625C-317.349 773.502 -316.147 774.372 -314.939 775.234L-314.702 774.902C-313.495 775.763 -312.283 776.618 -311.066 777.465L-311.299 777.8C-310.08 778.648 -308.856 779.489 -307.626 780.323L-307.397 779.985C-306.171 780.816 -304.939 781.64 -303.702 782.457L-303.927 782.797C-302.689 783.615 -301.445 784.425 -300.197 785.227L-299.976 784.884C-298.729 785.685 -297.476 786.479 -296.218 787.266L-296.435 787.612C-295.176 788.4 -293.912 789.18 -292.642 789.952L-292.43 789.603C-291.165 790.373 -289.894 791.136 -288.619 791.89L-288.827 792.242C-287.55 792.997 -286.269 793.745 -284.982 794.486L-284.779 794.132C-283.493 794.871 -282.203 795.603 -280.908 796.327L-281.108 796.683C-279.811 797.408 -278.51 798.125 -277.204 798.835L-277.009 798.476C-275.708 799.183 -274.402 799.881 -273.091 800.572L-273.282 800.934C-271.97 801.626 -270.653 802.31 -269.332 802.986L-269.146 802.622C-267.826 803.298 -266.501 803.965 -265.172 804.625L-265.353 804.991C-264.023 805.651 -262.687 806.303 -261.348 806.948L-261.171 806.58C-259.837 807.221 -258.499 807.855 -257.156 808.48L-257.328 808.85C-255.984 809.477 -254.635 810.095 -253.282 810.705L-253.114 810.333C-251.762 810.943 -250.406 811.544 -249.046 812.138L-249.209 812.512C-247.847 813.106 -246.482 813.692 -245.111 814.269L-244.953 813.893C-243.589 814.468 -242.222 815.034 -240.85 815.593L-241.004 815.971C-239.63 816.53 -238.253 817.081 -236.871 817.624L-236.722 817.244C-235.341 817.786 -233.957 818.32 -232.569 818.846L-232.713 819.228C-231.324 819.754 -229.931 820.271 -228.533 820.781L-228.394 820.397C-227.004 820.904 -225.61 821.402 -224.213 821.892L-224.348 822.278C-222.949 822.768 -221.546 823.25 -220.139 823.724L-220.008 823.337C-218.603 823.81 -217.194 824.275 -215.781 824.732L-215.906 825.121C-214.493 825.577 -213.075 826.026 -211.654 826.465L-211.533 826.075C-210.121 826.512 -208.705 826.941 -207.285 827.361L-207.401 827.753C-205.979 828.174 -204.554 828.586 -203.126 828.99L-203.015 828.597C-201.588 829 -200.157 829.395 -198.723 829.781L-198.829 830.175C-197.394 830.562 -195.956 830.94 -194.514 831.309L-194.412 830.913C-192.981 831.28 -191.546 831.638 -190.107 831.987L-190.204 832.384C-188.763 832.734 -187.32 833.075 -185.873 833.408L-185.782 833.01C-184.337 833.342 -182.888 833.666 -181.436 833.981L-181.523 834.38C-180.07 834.695 -178.614 835.002 -177.155 835.3L-177.073 834.899C-175.626 835.195 -174.175 835.481 -172.722 835.76L-172.799 836.161C-171.343 836.439 -169.885 836.709 -168.424 836.97L-168.352 836.568C-166.893 836.828 -165.43 837.08 -163.964 837.323L-164.031 837.726C-162.564 837.97 -161.094 838.204 -159.621 838.43L-159.559 838.026C-158.099 838.25 -156.637 838.465 -155.171 838.671L-155.228 839.075C-153.762 839.282 -152.293 839.479 -150.821 839.668L-150.769 839.263C-149.298 839.452 -147.825 839.631 -146.35 839.802L-146.397 840.208C-144.919 840.379 -143.439 840.541 -141.956 840.695L-141.914 840.288C-140.445 840.44 -138.973 840.583 -137.499 840.718L-137.536 841.125C-136.062 841.259 -134.585 841.384 -133.106 841.501L-133.074 841.094C-131.597 841.21 -130.117 841.318 -128.635 841.417L-128.662 841.824C-127.178 841.923 -125.692 842.013 -124.203 842.094L-124.181 841.686C-122.705 841.766 -121.227 841.838 -119.746 841.9L-119.763 842.308C-118.285 842.371 -116.806 842.424 -115.324 842.469L-115.311 842.061C-113.831 842.106 -112.348 842.141 -110.863 842.168L-110.871 842.577C-109.384 842.604 -107.895 842.622 -106.405 842.631L-106.402 842.222C-106.12 842.224 -105.838 842.225 -105.556 842.226C-105.093 842.228 -104.63 842.229 -104.167 842.229C-103.421 842.229 -102.676 842.227 -101.932 842.222L-101.929 842.631C-100.439 842.622 -98.95 842.604 -97.463 842.577L-97.471 842.168C-95.986 842.141 -94.503 842.106 -93.023 842.061L-93.011 842.469C-91.528 842.424 -90.049 842.371 -88.571 842.308L-88.588 841.9C-87.108 841.838 -85.629 841.766 -84.153 841.686L-84.131 842.094C-82.642 842.013 -81.156 841.923 -79.672 841.824L-79.699 841.417C-78.217 841.318 -76.737 841.21 -75.26 841.094L-75.228 841.501C-73.749 841.384 -72.272 841.259 -70.798 841.125L-70.835 840.718C-69.361 840.584 -67.889 840.44 -66.42 840.288L-66.378 840.695C-64.895 840.541 -63.415 840.379 -61.938 840.208L-61.984 839.802C-60.509 839.631 -59.036 839.452 -57.565 839.263L-57.513 839.668C-56.041 839.479 -54.572 839.282 -53.106 839.075L-53.163 838.671C-51.697 838.465 -50.235 838.25 -48.775 838.026L-48.713 838.43C-47.24 838.204 -45.77 837.97 -44.303 837.726L-44.37 837.323C-42.904 837.08 -41.441 836.828 -39.982 836.568L-39.91 836.97C-38.449 836.709 -36.991 836.439 -35.536 836.161L-35.612 835.76C-34.159 835.482 -32.708 835.195 -31.261 834.9L-31.179 835.3C-29.72 835.002 -28.264 834.695 -26.811 834.38L-26.898 833.981C-25.446 833.666 -23.997 833.342 -22.552 833.01L-22.461 833.408C-21.014 833.076 -19.571 832.734 -18.13 832.384L-18.227 831.987C-16.788 831.638 -15.353 831.28 -13.922 830.913L-13.82 831.309C-12.378 830.94 -10.94 830.562 -9.50501 830.175L-9.61099 829.781C-8.17699 829.395 -6.74701 829 -5.32001 828.597L-5.20801 828.99C-3.78001 828.586 -2.35501 828.174 -0.933014 827.753L-1.04901 827.361C0.370988 826.941 1.787 826.512 3.199 826.075L3.32001 826.466C4.74101 826.026 6.15899 825.577 7.57199 825.121L7.44699 824.732C8.85999 824.275 10.269 823.81 11.674 823.337L11.805 823.724C13.212 823.25 14.615 822.768 16.014 822.278L15.879 821.892C17.276 821.402 18.67 820.904 20.06 820.397L20.199 820.781C21.597 820.272 22.99 819.754 24.379 819.228L24.235 818.846C25.623 818.32 27.008 817.786 28.388 817.244L28.537 817.624C29.919 817.082 31.296 816.531 32.67 815.971L32.516 815.593C33.888 815.035 35.255 814.468 36.619 813.893L36.777 814.269C38.148 813.692 39.513 813.106 40.875 812.512L40.712 812.138C42.072 811.544 43.428 810.943 44.78 810.333L44.948 810.705C46.301 810.095 47.65 809.477 48.994 808.851L48.822 808.48C50.165 807.855 51.503 807.221 52.837 806.58L53.014 806.948C54.354 806.303 55.689 805.651 57.019 804.991L56.838 804.625C58.167 803.965 59.492 803.298 60.812 802.622L60.998 802.986C62.319 802.31 63.636 801.626 64.948 800.934L64.757 800.573C66.068 799.882 67.374 799.183 68.675 798.476L68.87 798.835C70.176 798.126 71.477 797.409 72.774 796.684L72.574 796.327C73.869 795.603 75.159 794.871 76.445 794.132L76.648 794.486C77.935 793.746 79.216 792.998 80.493 792.242L80.285 791.891C81.56 791.136 82.831 790.373 84.096 789.603L84.308 789.952C85.578 789.18 86.842 788.4 88.101 787.612L87.884 787.266C89.142 786.479 90.395 785.685 91.642 784.884L91.863 785.227C93.111 784.425 94.355 783.615 95.593 782.798L95.368 782.457C96.605 781.64 97.837 780.816 99.063 779.985L99.292 780.323C100.522 779.489 101.746 778.649 102.965 777.801L102.732 777.465C103.949 776.618 105.161 775.764 106.368 774.902L106.605 775.234C107.813 774.372 109.015 773.502 110.212 772.625L109.971 772.295C111.167 771.419 112.357 770.536 113.541 769.645L113.787 769.972C114.974 769.079 116.155 768.18 117.331 767.273L117.082 766.95C118.256 766.044 119.425 765.131 120.588 764.212L120.841 764.532C122.006 763.612 123.164 762.684 124.317 761.749L124.059 761.432C125.211 760.498 126.357 759.558 127.497 758.61L127.758 758.924C128.9 757.975 130.036 757.019 131.166 756.056L130.901 755.745C132.03 754.784 133.152 753.815 134.269 752.84L134.538 753.148C135.656 752.171 136.768 751.188 137.873 750.198L137.601 749.894C138.706 748.905 139.804 747.909 140.897 746.907L141.173 747.208C142.267 746.205 143.355 745.195 144.436 744.178L144.157 743.88C145.237 742.865 146.311 741.843 147.379 740.814L147.662 741.108C148.732 740.078 149.794 739.042 150.851 737.999L150.564 737.709C151.619 736.667 152.668 735.619 153.71 734.565L154.001 734.852C155.044 733.796 156.081 732.734 157.112 731.666L156.818 731.383C157.848 730.316 158.871 729.242 159.887 728.163L160.184 728.443C161.202 727.362 162.213 726.275 163.218 725.182L162.917 724.906C163.92 723.814 164.916 722.716 165.906 721.612L166.21 721.885C167.201 720.78 168.185 719.669 169.162 718.552L168.855 718.283C169.831 717.167 170.8 716.045 171.763 714.917L172.074 715.182C173.038 714.053 173.994 712.918 174.945 711.776L174.631 711.515C175.579 710.376 176.521 709.231 177.455 708.08L177.772 708.337C178.708 707.186 179.636 706.028 180.558 704.864L180.238 704.611C181.158 703.448 182.072 702.28 182.978 701.107L183.302 701.356C184.209 700.181 185.11 699.001 186.003 697.814L185.677 697.569C186.568 696.385 187.453 695.195 188.33 694L188.659 694.242C189.537 693.046 190.408 691.844 191.271 690.637L190.939 690.399C191.802 689.193 192.657 687.982 193.505 686.765L193.84 686.999C194.689 685.78 195.531 684.557 196.366 683.328L196.028 683.098C196.86 681.873 197.685 680.641 198.503 679.405L198.843 679.63C199.661 678.393 200.472 677.15 201.276 675.902L200.932 675.681C201.735 674.434 202.53 673.182 203.317 671.925L203.664 672.142C204.452 670.884 205.233 669.62 206.006 668.351L205.657 668.138C206.428 666.874 207.192 665.604 207.947 664.329L208.299 664.537C209.055 663.261 209.804 661.98 210.545 660.694L210.191 660.49C210.932 659.206 211.664 657.916 212.389 656.622L212.746 656.821C213.472 655.525 214.19 654.225 214.9 652.919L214.541 652.724C215.249 651.423 215.948 650.118 216.64 648.808L217.002 648.998C217.694 647.687 218.379 646.371 219.056 645.05L218.693 644.863C219.369 643.544 220.037 642.22 220.698 640.891L221.064 641.073C221.725 639.742 222.378 638.408 223.023 637.068L222.655 636.891C223.298 635.557 223.932 634.22 224.559 632.877L224.929 633.05C225.556 631.706 226.175 630.358 226.786 629.005L226.414 628.837C227.024 627.485 227.627 626.13 228.221 624.77L228.595 624.933C229.19 623.572 229.777 622.206 230.355 620.836L229.979 620.677C230.554 619.314 231.122 617.947 231.681 616.576L232.06 616.73C232.619 615.357 233.171 613.979 233.715 612.598L233.335 612.448C233.878 611.069 234.412 609.685 234.939 608.297L235.321 608.441C235.847 607.052 236.366 605.659 236.876 604.262L236.492 604.122C237 602.733 237.499 601.339 237.99 599.942L238.375 600.077C238.866 598.678 239.349 597.276 239.824 595.869L239.437 595.738C239.911 594.333 240.376 592.924 240.833 591.512L241.222 591.638C241.68 590.224 242.129 588.807 242.569 587.385L242.179 587.264C242.617 585.852 243.046 584.436 243.467 583.017L243.859 583.133C244.28 581.712 244.693 580.287 245.097 578.858L244.704 578.747C245.108 577.32 245.503 575.89 245.89 574.456L246.285 574.562C246.672 573.128 247.05 571.689 247.42 570.247L247.024 570.146C247.391 568.714 247.75 567.279 248.1 565.841L248.497 565.938C248.847 564.498 249.189 563.054 249.522 561.608L249.124 561.516C249.457 560.071 249.781 558.623 250.097 557.171L250.496 557.258C250.812 555.805 251.119 554.349 251.417 552.89L251.017 552.808C251.313 551.361 251.6 549.91 251.878 548.457L252.279 548.534C252.558 547.079 252.828 545.621 253.09 544.16L252.688 544.088C252.949 542.628 253.201 541.166 253.444 539.7L253.847 539.767C254.091 538.3 254.326 536.83 254.552 535.357L254.148 535.295C254.373 533.835 254.588 532.373 254.794 530.908L255.199 530.965C255.406 529.498 255.603 528.029 255.793 526.557L255.387 526.505C255.576 525.035 255.756 523.562 255.928 522.086L256.333 522.133C256.505 520.656 256.667 519.176 256.821 517.693L256.414 517.651C256.567 516.181 256.71 514.71 256.845 513.235L257.251 513.272C257.386 511.798 257.512 510.322 257.628 508.843L257.221 508.811C257.338 507.334 257.446 505.854 257.545 504.372L257.952 504.399C258.051 502.915 258.141 501.429 258.222 499.94L257.814 499.918C257.895 498.442 257.966 496.963 258.029 495.483L258.437 495.5C258.5 494.022 258.553 492.542 258.598 491.06L258.19 491.048C258.235 489.568 258.271 488.085 258.297 486.6L258.706 486.607C258.733 485.121 258.751 483.632 258.76 482.141L258.351 482.139C258.356 481.394 258.358 480.649 258.358 479.904C258.358 479.158 258.356 478.413 258.351 477.669L258.76 477.666C258.751 476.175 258.733 474.687 258.706 473.2L258.297 473.208C258.271 471.723 258.235 470.24 258.19 468.76L258.598 468.747C258.553 467.265 258.5 465.785 258.437 464.308L258.029 464.325C257.966 462.844 257.895 461.366 257.814 459.89L258.222 459.868C258.141 458.379 258.051 456.893 257.952 455.409L257.545 455.436C257.446 453.954 257.338 452.474 257.221 450.997L257.628 450.965C257.512 449.486 257.386 448.009 257.251 446.535L256.845 446.573C256.71 445.098 256.567 443.626 256.415 442.157L256.821 442.115C256.667 440.632 256.505 439.152 256.333 437.675L255.928 437.722C255.756 436.246 255.576 434.773 255.387 433.303L255.793 433.251C255.604 431.779 255.406 430.309 255.199 428.843L254.794 428.9C254.588 427.435 254.373 425.972 254.149 424.513L254.552 424.451C254.326 422.978 254.091 421.508 253.847 420.04L253.445 420.107C253.201 418.642 252.949 417.179 252.688 415.72L253.09 415.648C252.828 414.187 252.558 412.729 252.28 411.274L251.878 411.351C251.6 409.897 251.313 408.447 251.017 407L251.417 406.918C251.119 405.459 250.812 404.003 250.496 402.55L250.097 402.636C249.781 401.185 249.457 399.737 249.125 398.292L249.523 398.2C249.189 396.753 248.848 395.31 248.497 393.87L248.1 393.967C247.75 392.528 247.392 391.093 247.024 389.662L247.42 389.56C247.05 388.118 246.672 386.68 246.285 385.245L245.89 385.352C245.504 383.918 245.108 382.487 244.704 381.061L245.097 380.949C244.693 379.521 244.28 378.096 243.859 376.675L243.467 376.791C243.046 375.371 242.617 373.955 242.179 372.543L242.569 372.422C242.129 371.001 241.68 369.584 241.222 368.17L240.834 368.296C240.376 366.883 239.911 365.474 239.437 364.069L239.824 363.939C239.349 362.532 238.866 361.129 238.375 359.73L237.99 359.866C237.499 358.468 237 357.075 236.493 355.686L236.876 355.545C236.366 354.148 235.848 352.755 235.321 351.366L234.939 351.511C234.412 350.123 233.878 348.739 233.335 347.359L233.715 347.21C233.171 345.828 232.62 344.451 232.06 343.078L231.681 343.232C231.122 341.86 230.555 340.493 229.979 339.13L230.355 338.971C229.777 337.601 229.19 336.236 228.595 334.874L228.221 335.038C227.627 333.678 227.025 332.322 226.414 330.971L226.786 330.803C226.175 329.45 225.556 328.102 224.929 326.758L224.559 326.93C223.932 325.588 223.298 324.25 222.656 322.917L223.024 322.739C222.378 321.4 221.725 320.065 221.064 318.735L220.698 318.917C220.038 317.588 219.369 316.264 218.693 314.944L219.056 314.758C218.379 313.437 217.695 312.121 217.002 310.809L216.641 311C215.949 309.69 215.249 308.384 214.541 307.084L214.9 306.889C214.19 305.583 213.472 304.282 212.746 302.986L212.39 303.186C211.665 301.891 210.932 300.602 210.192 299.317L210.546 299.113C209.804 297.827 209.055 296.546 208.299 295.27L207.948 295.478C207.192 294.204 206.429 292.934 205.658 291.669L206.006 291.456C205.233 290.188 204.452 288.924 203.664 287.665L203.318 287.882C202.53 286.625 201.735 285.373 200.932 284.127L201.276 283.906C200.473 282.658 199.662 281.415 198.843 280.177L198.503 280.403C197.685 279.166 196.86 277.935 196.028 276.709L196.366 276.48C195.531 275.251 194.69 274.027 193.841 272.809L193.506 273.042C192.657 271.826 191.802 270.614 190.939 269.408L191.272 269.171C190.408 267.964 189.537 266.762 188.659 265.566L188.33 265.808C187.453 264.612 186.568 263.423 185.677 262.239L186.003 261.993C185.11 260.807 184.209 259.626 183.302 258.451L182.979 258.701C182.072 257.527 181.159 256.359 180.238 255.197L180.558 254.943C179.637 253.78 178.708 252.622 177.773 251.47L177.456 251.728C176.521 250.577 175.579 249.432 174.631 248.292L174.945 248.031C173.995 246.89 173.038 245.755 172.074 244.626L171.763 244.891C170.801 243.763 169.831 242.641 168.855 241.525L169.162 241.256C168.185 240.139 167.201 239.028 166.21 237.923L165.906 238.195C164.917 237.091 163.92 235.994 162.917 234.902L163.218 234.626C162.213 233.532 161.202 232.445 160.185 231.365L159.887 231.645C158.871 230.565 157.848 229.492 156.818 228.425L157.112 228.141C156.082 227.073 155.044 226.011 154.001 224.956L153.71 225.243C152.668 224.188 151.619 223.14 150.564 222.099L150.851 221.808C149.795 220.765 148.732 219.729 147.663 218.699L147.379 218.994C146.312 217.965 145.237 216.943 144.157 215.927L144.437 215.63C143.355 214.613 142.267 213.603 141.173 212.599L140.897 212.9C139.805 211.898 138.706 210.902 137.601 209.914L137.874 209.609C136.768 208.619 135.656 207.636 134.538 206.66L134.269 206.968C133.153 205.992 132.03 205.024 130.901 204.062L131.166 203.751C130.036 202.788 128.9 201.832 127.758 200.883L127.497 201.197C126.357 200.25 125.211 199.309 124.06 198.375L124.317 198.058C123.164 197.123 122.006 196.196 120.842 195.275L120.588 195.596C119.425 194.676 118.257 193.763 117.082 192.858L117.331 192.534C116.156 191.628 114.974 190.728 113.787 189.836L113.542 190.162C112.357 189.272 111.167 188.388 109.971 187.512L110.212 187.183C109.016 186.306 107.813 185.436 106.605 184.573L106.368 184.905C105.162 184.044 103.95 183.189 102.732 182.342L102.965 182.007C101.747 181.159 100.522 180.318 99.293 179.484L99.063 179.823C97.837 178.991 96.605 178.167 95.368 177.351L95.593 177.01C94.355 176.192 93.112 175.383 91.863 174.58L91.642 174.924C90.395 174.122 89.142 173.328 87.885 172.541L88.101 172.195C86.842 171.408 85.578 170.628 84.309 169.855L84.096 170.204C82.831 169.434 81.561 168.672 80.285 167.917L80.493 167.565C79.217 166.81 77.935 166.062 76.649 165.322L76.445 165.676C75.16 164.936 73.87 164.204 72.575 163.48L72.774 163.124C71.478 162.399 70.176 161.682 68.87 160.972L68.675 161.331C67.374 160.625 66.068 159.926 64.758 159.235L64.948 158.873C63.636 158.182 62.32 157.498 60.998 156.821L60.812 157.185C59.492 156.51 58.167 155.842 56.838 155.183L57.02 154.817C55.689 154.156 54.354 153.504 53.014 152.86L52.837 153.228C51.503 152.586 50.165 151.953 48.822 151.327L48.995 150.957C47.65 150.33 46.301 149.712 44.948 149.102L44.78 149.474C43.429 148.865 42.072 148.263 40.712 147.67L40.875 147.295C39.514 146.701 38.148 146.116 36.778 145.538L36.619 145.914C35.256 145.34 33.888 144.773 32.516 144.214L32.67 143.836C31.297 143.277 29.919 142.726 28.537 142.183L28.388 142.563C27.008 142.021 25.624 141.487 24.235 140.961L24.38 140.579C22.991 140.053 21.597 139.536 20.2 139.026L20.06 139.41C18.67 138.904 17.277 138.405 15.879 137.915L16.014 137.53C14.615 137.039 13.212 136.557 11.805 136.083L11.675 136.47C10.269 135.997 8.86002 135.532 7.44702 135.075L7.57303 134.687C6.15903 134.23 4.74204 133.782 3.32004 133.342L3.20004 133.732C1.78704 133.295 0.371019 132.866 -1.04898 132.446L-0.932984 132.054C-2.35398 131.634 -3.77898 131.221 -5.20798 130.818L-5.31897 131.211C-6.74597 130.807 -8.17696 130.413 -9.61096 130.026L-9.50497 129.632C-10.94 129.245 -12.378 128.868 -13.82 128.498L-13.921 128.894C-15.353 128.528 -16.788 128.169 -18.227 127.82L-18.13 127.423C-19.57 127.073 -21.014 126.732 -22.46 126.399L-22.552 126.797C-23.997 126.465 -25.445 126.141 -26.897 125.826L-26.811 125.427C-28.263 125.112 -29.72 124.805 -31.179 124.508L-31.261 124.908C-32.708 124.612 -34.158 124.326 -35.612 124.048L-35.535 123.646C-36.99 123.368 -38.448 123.098 -39.91 122.838L-39.981 123.24C-41.441 122.979 -42.904 122.727 -44.369 122.484L-44.302 122.081C-45.77 121.838 -47.24 121.603 -48.713 121.377L-48.775 121.781C-50.234 121.557 -51.697 121.343 -53.162 121.136L-53.105 120.732C-54.572 120.525 -56.041 120.328 -57.513 120.139L-57.565 120.544C-59.035 120.356 -60.508 120.176 -61.984 120.005L-61.937 119.599C-63.415 119.428 -64.895 119.266 -66.378 119.112L-66.419 119.519C-67.889 119.367 -69.361 119.224 -70.835 119.089L-70.798 118.683C-72.272 118.548 -73.748 118.423 -75.227 118.306L-75.259 118.713C-76.737 118.597 -78.216 118.489 -79.699 118.391L-79.672 117.983C-81.155 117.884 -82.642 117.794 -84.13 117.713L-84.153 118.121C-85.629 118.041 -87.107 117.969 -88.588 117.907L-88.571 117.499C-90.048 117.436 -91.528 117.383 -93.01 117.338L-93.022 117.746C-94.503 117.702 -95.986 117.666 -97.47 117.639L-97.463 117.231C-98.949 117.204 -100.438 117.186 -101.929 117.177L-101.931 117.585C-102.676 117.581 -103.421 117.578 -104.167 117.578C-104.912 117.578 -105.657 117.581 -106.402 117.585L-106.404 117.177C-107.895 117.186 -109.384 117.204 -110.87 117.231L-110.863 117.639C-112.348 117.666 -113.83 117.702 -115.311 117.746L-115.323 117.338C-116.805 117.383 -118.285 117.436 -119.763 117.499L-119.745 117.907C-121.226 117.969 -122.705 118.041 -124.181 118.121L-124.203 117.713C-125.692 117.794 -127.178 117.884 -128.662 117.983L-128.635 118.391C-130.117 118.489 -131.597 118.597 -133.074 118.713L-133.106 118.306C-134.585 118.423 -136.061 118.548 -137.535 118.683L-137.498 119.089C-138.973 119.224 -140.444 119.367 -141.914 119.519L-141.956 119.112C-143.439 119.266 -144.919 119.428 -146.396 119.599L-146.349 120.005C-147.825 120.176 -149.298 120.356 -150.768 120.544L-150.82 120.139C-152.292 120.328 -153.762 120.525 -155.228 120.732L-155.171 121.136C-156.636 121.342 -158.099 121.557 -159.558 121.781L-159.62 121.377C-161.093 121.603 -162.564 121.838 -164.031 122.081L-163.964 122.484C-165.43 122.727 -166.892 122.979 -168.352 123.24L-168.424 122.837C-169.885 123.098 -171.343 123.368 -172.798 123.646L-172.721 124.048C-174.175 124.326 -175.625 124.612 -177.073 124.908L-177.154 124.507C-178.614 124.805 -180.07 125.112 -181.523 125.427L-181.436 125.826C-182.888 126.141 -184.336 126.465 -185.781 126.797L-185.873 126.399C-187.32 126.732 -188.763 127.073 -190.203 127.423L-190.107 127.82C-191.545 128.169 -192.98 128.527 -194.412 128.894L-194.513 128.498C-195.955 128.868 -197.394 129.245 -198.829 129.632L-198.722 130.026C-200.157 130.412 -201.587 130.807 -203.014 131.21L-203.125 130.817C-204.554 131.221 -205.979 131.633 -207.4 132.054L-207.284 132.446C-208.704 132.866 -210.12 133.295 -211.533 133.732L-211.654 133.342C-213.075 133.782 -214.492 134.23 -215.906 134.687L-215.781 135.075C-217.194 135.532 -218.603 135.997 -220.008 136.47L-220.138 136.083C-221.545 136.557 -222.948 137.039 -224.347 137.53L-224.212 137.915C-225.61 138.405 -227.004 138.903 -228.393 139.41L-228.533 139.026C-229.93 139.536 -231.324 140.053 -232.713 140.579L-232.568 140.961C-233.957 141.487 -235.341 142.021 -236.721 142.563L-236.871 142.183C-238.252 142.726 -239.63 143.277 -241.003 143.836L-240.849 144.214C-242.221 144.773 -243.589 145.339 -244.952 145.914L-245.111 145.538C-246.481 146.115 -247.847 146.701 -249.209 147.295L-249.045 147.67C-250.406 148.263 -251.762 148.864 -253.114 149.474L-253.281 149.102C-254.635 149.712 -255.984 150.33 -257.328 150.957L-257.155 151.327C-258.498 151.952 -259.837 152.586 -261.17 153.228L-261.347 152.859C-262.687 153.504 -264.022 154.156 -265.353 154.816L-265.171 155.182C-266.501 155.842 -267.825 156.51 -269.145 157.185L-269.331 156.821C-270.653 157.497 -271.97 158.181 -273.282 158.873L-273.091 159.235C-274.402 159.926 -275.707 160.625 -277.008 161.331L-277.203 160.972C-278.51 161.682 -279.811 162.399 -281.107 163.124L-280.908 163.48C-282.203 164.204 -283.493 164.936 -284.778 165.675L-284.982 165.321C-286.268 166.062 -287.55 166.81 -288.827 167.565L-288.619 167.917C-289.894 168.671 -291.164 169.434 -292.43 170.204L-292.642 169.855C-293.911 170.627 -295.176 171.407 -296.435 172.195L-296.218 172.541C-297.476 173.328 -298.728 174.122 -299.976 174.924L-300.196 174.58C-301.445 175.382 -302.688 176.192 -303.927 177.01L-303.702 177.35C-304.939 178.167 -306.17 178.991 -307.397 179.822L-307.626 179.484C-308.856 180.318 -310.08 181.159 -311.299 182.007L-311.065 182.342C-312.283 183.189 -313.495 184.044 -314.701 184.905L-314.939 184.573C-316.147 185.435 -317.349 186.305 -318.546 187.182L-318.304 187.512C-319.5 188.388 -320.69 189.271 -321.875 190.162L-322.12 189.836C-323.308 190.728 -324.489 191.627 -325.665 192.534L-325.415 192.858C-326.59 193.763 -327.759 194.676 -328.922 195.595L-329.175 195.275C-330.339 196.196 -331.498 197.123 -332.65 198.058L-332.393 198.375C-333.545 199.309 -334.691 200.249 -335.831 201.197L-336.092 200.883C-337.234 201.832 -338.369 202.788 -339.499 203.751L-339.235 204.062C-340.363 205.023 -341.486 205.992 -342.603 206.967L-342.871 206.66C-343.989 207.636 -345.101 208.619 -346.207 209.609L-345.935 209.913C-347.039 210.902 -348.138 211.898 -349.231 212.9L-349.507 212.599C-350.601 213.602 -351.689 214.613 -352.77 215.629L-352.49 215.927C-353.571 216.943 -354.645 217.965 -355.713 218.993L-355.996 218.699C-357.065 219.729 -358.128 220.765 -359.184 221.808L-358.897 222.099C-359.953 223.14 -361.001 224.188 -362.044 225.242L-362.334 224.955C-363.378 226.011 -364.415 227.073 -365.446 228.141L-365.152 228.425C-366.181 229.492 -367.204 230.565 -368.221 231.644L-368.518 231.364C-369.536 232.445 -370.547 233.532 -371.551 234.625L-371.25 234.902C-372.253 235.993 -373.25 237.091 -374.24 238.195L-374.544 237.922C-375.535 239.027 -376.519 240.139 -377.496 241.256L-377.188 241.525C-378.165 242.641 -379.134 243.763 -380.097 244.89L-380.407 244.625C-381.371 245.754 -382.328 246.89 -383.278 248.031L-382.964 248.292C-383.913 249.431 -384.854 250.576 -385.789 251.727L-386.106 251.47C-387.042 252.622 -387.97 253.779 -388.892 254.943L-388.571 255.197C-389.492 256.359 -390.406 257.527 -391.312 258.7L-391.635 258.451C-392.543 259.626 -393.443 260.807 -394.337 261.993L-394.01 262.239C-394.902 263.423 -395.786 264.612 -396.664 265.807L-396.993 265.566C-397.871 266.762 -398.742 267.963 -399.605 269.171L-399.273 269.408C-400.136 270.614 -400.991 271.825 -401.839 273.042L-402.174 272.809C-403.023 274.027 -403.865 275.25 -404.699 276.479L-404.361 276.709C-405.194 277.935 -406.019 279.166 -406.836 280.402L-407.177 280.177C-407.995 281.414 -408.806 282.657 -409.609 283.905L-409.266 284.126C-410.068 285.373 -410.863 286.625 -411.651 287.882L-411.997 287.665C-412.786 288.924 -413.567 290.187 -414.34 291.456L-413.991 291.669C-414.762 292.933 -415.525 294.203 -416.281 295.478L-416.633 295.27C-417.389 296.546 -418.138 297.827 -418.879 299.113L-418.525 299.317C-419.265 300.602 -419.998 301.891 -420.723 303.185L-421.079 302.986C-421.805 304.282 -422.523 305.583 -423.234 306.888L-422.875 307.083C-423.582 308.384 -424.282 309.689 -424.974 311L-425.335 310.809C-426.028 312.12 -426.713 313.437 -427.39 314.758L-427.026 314.944C-427.703 316.263 -428.371 317.588 -429.032 318.916L-429.397 318.735C-430.059 320.065 -430.712 321.4 -431.357 322.739L-430.989 322.916C-431.631 324.25 -432.266 325.588 -432.892 326.93L-433.263 326.757C-433.89 328.101 -434.509 329.45 -435.12 330.802L-434.748 330.971C-435.358 332.322 -435.96 333.678 -436.555 335.038L-436.929 334.874C-437.524 336.235 -438.11 337.601 -438.689 338.971L-438.313 339.13C-438.888 340.493 -439.456 341.86 -440.015 343.232L-440.393 343.077C-440.953 344.451 -441.505 345.828 -442.048 347.209L-441.668 347.359C-442.211 348.739 -442.746 350.123 -443.272 351.511L-443.654 351.366C-444.181 352.755 -444.7 354.148 -445.21 355.545L-444.826 355.685C-445.333 357.075 -445.832 358.468 -446.323 359.865L-446.709 359.73C-447.2 361.129 -447.683 362.532 -448.157 363.938L-447.77 364.069C-448.244 365.474 -448.71 366.883 -449.167 368.295L-449.556 368.17C-450.013 369.583 -450.462 371.001 -450.903 372.422L-450.513 372.543C-450.95 373.955 -451.38 375.371 -451.801 376.791L-452.192 376.674C-452.614 378.096 -453.027 379.52 -453.431 380.949L-453.038 381.06C-453.442 382.487 -453.837 383.917 -454.224 385.351L-454.618 385.245C-455.005 386.68 -455.384 388.118 -455.754 389.56L-455.358 389.661C-455.725 391.093 -456.084 392.528 -456.434 393.966L-456.831 393.87C-457.181 395.31 -457.523 396.753 -457.856 398.199L-457.458 398.291C-457.791 399.736 -458.115 401.184 -458.43 402.636L-458.83 402.549C-459.145 404.002 -459.452 405.458 -459.751 406.918L-459.351 406.999C-459.646 408.446 -459.933 409.897 -460.212 411.35L-460.613 411.273C-460.892 412.728 -461.162 414.186 -461.423 415.648L-461.021 415.719C-461.282 417.179 -461.535 418.641 -461.778 420.107L-462.181 420.04C-462.425 421.507 -462.66 422.977 -462.886 424.45L-462.482 424.512C-462.706 425.972 -462.921 427.434 -463.128 428.9L-463.532 428.843C-463.739 430.309 -463.937 431.778 -464.126 433.25L-463.721 433.302C-463.91 434.772 -464.09 436.245 -464.261 437.721L-464.667 437.674C-464.838 439.152 -465.001 440.632 -465.154 442.114L-464.748 442.156C-464.9 443.626 -465.044 445.098 -465.178 446.572L-465.585 446.535C-465.72 448.009 -465.845 449.485 -465.962 450.964L-465.555 450.996C-465.671 452.474 -465.779 453.953 -465.878 455.436L-466.286 455.408C-466.385 456.892 -466.475 458.378 -466.556 459.867L-466.148 459.889C-466.228 461.365 -466.3 462.844 -466.363 464.325L-466.771 464.307C-466.833 465.785 -466.887 467.265 -466.932 468.747L-466.524 468.759C-466.568 470.24 -466.604 471.722 -466.631 473.207L-467.04 473.2Z" stroke="url(#paint1_linear_920_2)" stroke-opacity="0.3" stroke-width="0.816958" stroke-dasharray="4.44 4.44"/>
</g>
<g style="mix-blend-mode:screen">
<path fill-rule="evenodd" clip-rule="evenodd" d="M258.767 166.192L259.075 165.925C331.859 249.997 375.924 359.646 376 479.592L376 479.772L376 479.839C376 479.861 376 479.882 376 479.904C376 479.925 376 479.947 376 479.968L376 480.036L376 480.409C375.877 600.279 331.82 709.856 259.075 793.883L258.767 793.616L257.95 792.985L-147.001 480.42L-147.016 480.409L-272 480.409L-272 479.592L-147.266 479.592L-147.001 479.388L257.95 166.823L258.767 166.192ZM375.178 482.198C375.17 483.724 375.156 485.249 375.135 486.771L374.984 486.763C374.896 488.29 374.777 489.809 374.63 491.32L375.049 491.36C372.346 606.574 328.984 711.722 258.767 792.991L258.767 792.584L258.767 480.409L375.182 480.409C375.179 481.006 375.172 481.603 375.161 482.198L375.178 482.198ZM375.183 479.592L258.767 479.592L258.767 167.224L258.767 166.817C328.984 248.086 372.346 353.233 375.049 468.447L374.63 468.488C374.777 469.999 374.896 471.518 374.984 473.045L375.135 473.036C375.156 474.559 375.17 476.083 375.178 477.609L375.161 477.61C375.174 478.269 375.181 478.93 375.183 479.592ZM257.95 791.953L257.95 480.409L-145.679 480.409L257.95 791.953ZM257.95 479.592L-145.929 479.592L257.95 167.855L257.95 479.592ZM258.767 362.67C259.538 362.67 260.308 362.678 261.077 362.693L261.061 363.51C260.298 363.495 259.533 363.487 258.767 363.487L258.767 362.67ZM265.673 362.87C267.21 362.96 268.74 363.079 270.261 363.227L270.182 364.04C268.672 363.893 267.152 363.775 265.625 363.686L265.673 362.87ZM274.838 363.763C276.363 363.972 277.88 364.211 279.386 364.478L279.243 365.282C277.747 365.017 276.242 364.78 274.727 364.572L274.838 363.763ZM283.901 365.371C285.404 365.699 286.895 366.056 288.376 366.442L288.17 367.232C286.7 366.85 285.219 366.495 283.727 366.169L283.901 365.371ZM292.809 367.69C294.282 368.136 295.742 368.61 297.189 369.112L296.922 369.884C295.484 369.385 294.034 368.914 292.572 368.471L292.809 367.69ZM301.508 370.706C302.94 371.267 304.357 371.855 305.76 372.469L305.433 373.218C304.039 372.607 302.632 372.023 301.211 371.467L301.508 370.706ZM309.939 374.399C311.321 375.071 312.689 375.769 314.04 376.493L313.654 377.213C312.313 376.494 310.955 375.801 309.582 375.134L309.939 374.399ZM318.056 378.746C319.38 379.524 320.688 380.328 321.979 381.155L321.538 381.843C320.256 381.021 318.957 380.223 317.642 379.451L318.056 378.746ZM325.804 383.717C327.063 384.596 328.304 385.499 329.526 386.425L329.033 387.076C327.819 386.156 326.587 385.259 325.337 384.386L325.804 383.717ZM333.14 389.278C334.326 390.252 335.493 391.25 336.64 392.27L336.097 392.88C334.958 391.868 333.799 390.877 332.621 389.909L333.14 389.278ZM340.02 395.395C341.126 396.459 342.211 397.545 343.275 398.651L342.686 399.217C341.63 398.119 340.552 397.041 339.453 395.984L340.02 395.395ZM346.401 402.031C347.42 403.177 348.418 404.344 349.393 405.53L348.761 406.049C347.793 404.871 346.803 403.712 345.79 402.574L346.401 402.031ZM352.245 409.144C353.172 410.366 354.075 411.607 354.954 412.866L354.284 413.334C353.411 412.084 352.514 410.851 351.594 409.638L352.245 409.144ZM357.515 416.691C358.343 417.982 359.146 419.29 359.924 420.615L359.22 421.028C358.447 419.713 357.649 418.414 356.827 417.133L357.515 416.691ZM362.178 424.63C362.902 425.982 363.6 427.349 364.271 428.731L363.537 429.088C362.87 427.716 362.176 426.358 361.458 425.016L362.178 424.63ZM366.201 432.91C366.816 434.313 367.404 435.731 367.964 437.162L367.204 437.46C366.647 436.039 366.063 434.631 365.453 433.238L366.201 432.91ZM369.558 441.481C370.06 442.929 370.535 444.389 370.981 445.861L370.199 446.098C369.756 444.636 369.285 443.186 368.787 441.749L369.558 441.481ZM372.229 450.295C372.614 451.775 372.971 453.267 373.299 454.769L372.501 454.944C372.175 453.452 371.821 451.97 371.438 450.5L372.229 450.295ZM374.192 459.284C374.46 460.791 374.698 462.307 374.907 463.833L374.098 463.944C373.89 462.429 373.654 460.923 373.388 459.427L374.192 459.284ZM374.907 495.975C374.698 497.501 374.46 499.017 374.192 500.523L373.388 500.381C373.654 498.885 373.89 497.379 374.098 495.864L374.907 495.975ZM373.299 505.038C372.971 506.541 372.614 508.033 372.229 509.513L371.438 509.307C371.821 507.837 372.175 506.356 372.501 504.864L373.299 505.038ZM370.981 513.946C370.535 515.419 370.06 516.879 369.558 518.327L368.786 518.059C369.285 516.622 369.756 515.172 370.199 513.709L370.981 513.946ZM367.964 522.646C367.404 524.077 366.816 525.495 366.201 526.898L365.453 526.57C366.063 525.177 366.647 523.769 367.204 522.348L367.964 522.646ZM364.271 531.076C363.6 532.459 362.902 533.826 362.178 535.177L361.458 534.792C362.176 533.45 362.87 532.092 363.537 530.719L364.271 531.076ZM359.924 539.193C359.146 540.518 358.343 541.826 357.515 543.116L356.827 542.675C357.649 541.393 358.447 540.095 359.22 538.779L359.924 539.193ZM354.954 546.942C354.075 548.201 353.172 549.442 352.245 550.664L351.594 550.17C352.514 548.956 353.411 547.724 354.284 546.474L354.954 546.942ZM349.392 554.277C348.418 555.463 347.42 556.63 346.401 557.777L345.79 557.234C346.803 556.095 347.793 554.937 348.761 553.759L349.392 554.277ZM343.275 561.157C342.211 562.263 341.126 563.348 340.02 564.412L339.453 563.823C340.552 562.767 341.63 561.689 342.686 560.591L343.275 561.157ZM336.64 567.538C335.493 568.558 334.326 569.555 333.14 570.53L332.621 569.899C333.799 568.931 334.958 567.94 336.097 566.928L336.64 567.538ZM329.526 573.382C328.304 574.309 327.063 575.212 325.804 576.091L325.337 575.421C326.587 574.548 327.819 573.651 329.033 572.731L329.526 573.382ZM321.979 578.652C320.688 579.48 319.38 580.283 318.056 581.061L317.642 580.357C318.957 579.584 320.256 578.787 321.538 577.965L321.979 578.652ZM314.04 583.315C312.689 584.039 311.321 584.737 309.939 585.409L309.582 584.674C310.955 584.007 312.312 583.314 313.654 582.595L314.04 583.315ZM305.76 587.338C304.357 587.953 302.94 588.541 301.508 589.102L301.21 588.341C302.632 587.784 304.039 587.2 305.433 586.59L305.76 587.338ZM297.189 590.696C295.742 591.198 294.281 591.672 292.809 592.118L292.572 591.336C294.034 590.893 295.484 590.422 296.922 589.924L297.189 590.696ZM288.376 593.366C286.895 593.751 285.403 594.108 283.901 594.436L283.726 593.638C285.219 593.312 286.7 592.958 288.17 592.575L288.376 593.366ZM279.386 595.33C277.88 595.597 276.363 595.836 274.837 596.045L274.727 595.235C276.242 595.028 277.747 594.791 279.243 594.525L279.386 595.33ZM270.261 596.581C268.74 596.729 267.21 596.848 265.673 596.937L265.625 596.122C267.152 596.033 268.672 595.915 270.182 595.768L270.261 596.581ZM261.076 597.115C260.308 597.13 259.538 597.137 258.767 597.137L258.767 596.32C259.533 596.32 260.298 596.313 261.061 596.298L261.076 597.115Z" fill="#36458A" fill-opacity="0.3"/>
</g>
<path d="M258.358 167.827C257.456 167.827 256.724 167.095 256.724 166.193C256.724 165.29 257.456 164.559 258.358 164.559C259.26 164.559 259.992 165.29 259.992 166.193C259.992 167.095 259.26 167.827 258.358 167.827Z" fill="#1D2E80"/>
<path d="M166.042 240.02C165.14 240.02 164.408 239.288 164.408 238.386C164.408 237.483 165.14 236.752 166.042 236.752C166.944 236.752 167.676 237.483 167.676 238.386C167.676 239.288 166.944 240.02 166.042 240.02Z" fill="#1D2E80"/>
<path d="M166.042 722.841C165.14 722.841 164.408 722.109 164.408 721.207C164.408 720.305 165.14 719.573 166.042 719.573C166.944 719.573 167.676 720.305 167.676 721.207C167.676 722.109 166.944 722.841 166.042 722.841Z" fill="#1D2E80"/>
<path d="M258.358 795.25C257.456 795.25 256.724 794.518 256.724 793.616C256.724 792.714 257.456 791.982 258.358 791.982C259.26 791.982 259.992 792.714 259.992 793.616C259.992 794.518 259.26 795.25 258.358 795.25Z" fill="#1D2E80"/>
<path d="M375.591 481.537C374.689 481.537 373.957 480.806 373.957 479.903C373.957 479.001 374.689 478.269 375.591 478.269C376.494 478.269 377.225 479.001 377.225 479.903C377.225 480.806 376.494 481.537 375.591 481.537Z" fill="#1C104F" stroke="#6852C9" stroke-width="0.816958"/>
</g>
</g>
<defs>
<linearGradient id="paint0_linear_920_2" x1="375.553" y1="479.915" x2="-582.728" y2="479.915" gradientUnits="userSpaceOnUse">
<stop offset="0.255208" stop-color="#5D50A3"/>
<stop offset="0.625" stop-color="#5D50A3" stop-opacity="0"/>
</linearGradient>
<linearGradient id="paint1_linear_920_2" x1="258.767" y1="479.861" x2="-467.1" y2="479.861" gradientUnits="userSpaceOnUse">
<stop offset="0.255208" stop-color="#5D50A3"/>
<stop offset="0.625" stop-color="#5D50A3" stop-opacity="0"/>
</linearGradient>
<clipPath id="clip0_920_2">
<rect width="960" height="380" fill="white" transform="translate(380) rotate(90)"/>
</clipPath>
</defs>
</svg>
